<?xml version="1.0" standalone="no"?>
<!DOCTYPE svg PUBLIC "-//W3C//DTD SVG 20010904//EN"
 "http://www.w3.org/TR/2001/REC-SVG-20010904/DTD/svg10.dtd">
<svg version="1.0" xmlns="http://www.w3.org/2000/svg"
 width="512.000000pt" height="512.000000pt" viewBox="0 0 512.000000 512.000000"
 preserveAspectRatio="xMidYMid meet">
<metadata>
Created by potrace 1.14, written by Peter Selinger 2001-2017
</metadata>
<g transform="translate(0.000000,512.000000) scale(0.100000,-0.100000)"
fill="#000000" stroke="none">
<path d="M2121 4259 c-29 -5 -74 -19 -100 -31 -25 -12 -54 -22 -63 -23 -23 -3
-109 -54 -133 -79 -11 -12 -426 -257 -922 -545 l-903 -524 0 -226 1 -226 1500
-865 c824 -476 1510 -869 1523 -874 21 -8 144 61 927 515 497 289 924 535 949
549 92 48 190 121 206 152 12 22 15 48 12 91 -4 54 -8 63 -44 96 -21 20 -49
43 -62 51 -34 22 -21 61 29 95 54 35 79 79 79 138 0 53 -16 91 -52 123 -35 32
-2644 1535 -2708 1560 -66 26 -165 36 -239 23z m2727 -2215 c-13 -13 -1729
-1011 -1754 -1021 -12 -4 -14 18 -14 123 l0 129 697 405 c383 223 782 455 887
516 l191 110 3 -125 c2 -91 -1 -128 -10 -137z"/>
</g>
</svg>
